<svg width="60" height="90" viewBox="0 0 60 90" fill="none" xmlns="http://www.w3.org/2000/svg">
<path d="M29.7979 10.8727C24.8426 10.8727 20.1772 12.0852 16.0653 14.2334C16.5925 20.2299 17.7522 27.2938 20.1772 34.0811C21.4687 37.7053 23.2084 41.066 25.4093 43.9259C26.7931 45.7314 28.1901 46.5617 30.1406 46.5617C32.0911 46.5617 33.4222 45.705 34.8455 43.9259C39.0364 38.6542 40.8156 32.0779 41.949 27.7551C42.0149 27.4915 42.094 27.3861 42.239 27.3861C42.3839 27.3861 42.5816 27.4915 42.7134 27.7815C44.3608 31.3266 44.7035 37.3495 43.491 42.2785C41.5141 50.3177 37.3363 57.6189 31.3135 62.6665C30.9313 62.9828 30.5755 63.141 30.1406 63.141C29.7057 63.141 29.3498 62.9828 28.9676 62.6533C24.3549 58.805 20.5725 53.7443 18.0026 47.9059C14.4575 39.9721 12.3752 27.3729 12.586 16.3684C4.96851 21.7586 0 30.6282 0 40.6706C0 57.1313 13.3372 70.4685 29.7979 70.4685C46.2586 70.4685 59.5958 57.1313 59.5958 40.6706C59.5958 24.2099 46.2586 10.8727 29.7979 10.8727ZM15.7754 0.250355C15.7885 0.105385 15.7226 0.03949 15.604 -4.72432e-05C15.4986 -0.0264054 15.3932 0.03949 15.3405 0.144923C13.5481 4.21726 12.6783 10.0161 12.5597 16.3552C13.6667 15.5645 14.8396 14.8528 16.0521 14.2202C15.4722 7.70972 15.6436 2.45126 15.7622 0.250355H15.7754Z" fill="#FF4242"/>
<path d="M6.29961 89.7759L2.68854 79.7729H4.71812L7.19578 86.8765H7.23532L9.63391 79.7729H11.6371L8.0656 89.7759H6.31279H6.29961Z" fill="#FF4242"/>
<path d="M12.8496 89.7759V79.7729H19.1756V81.5521H14.7738V83.7926H18.7802V85.5059H14.7738V87.9835H19.1756V89.7759H12.8496Z" fill="#FF4242"/>
<path d="M21.0997 89.7759V79.7729H23.0238L26.6876 86.3361H26.714V79.7729H28.6513V89.7759H26.7535L23.0502 83.2127H23.0238V89.7759H21.0997Z" fill="#FF4242"/>
<path d="M33.5012 89.7759L29.8901 79.7729H31.9197L34.3974 86.8765H34.4369L36.8355 79.7729H38.8387L35.2672 89.7759H33.5144H33.5012Z" fill="#FF4242"/>
<path d="M40.0381 89.7759V79.7729H46.364V81.5521H41.9622V83.7926H45.9687V85.5059H41.9622V87.9835H46.364V89.7759H40.0381Z" fill="#FF4242"/>
<path d="M53.6784 89.6967C53.1776 89.8944 52.6372 89.9999 52.0573 89.9999C51.4775 89.9999 50.9503 89.8944 50.4363 89.6967C49.9355 89.499 49.4742 89.1959 49.0525 88.7874C48.644 88.3788 48.3145 87.8253 48.0641 87.1268C47.8269 86.4283 47.6951 85.6112 47.6951 84.6887C47.6951 83.8584 47.8137 83.1072 48.0641 82.4482C48.3013 81.7761 48.6308 81.2358 49.0525 80.8272C49.4742 80.4187 49.9355 80.1024 50.4363 79.8783C50.9503 79.6674 51.4775 79.562 52.0442 79.562C52.6109 79.562 53.138 79.6674 53.652 79.8783C54.166 80.0892 54.6273 80.4055 55.0358 80.8272C55.4444 81.2489 55.7738 81.7761 56.0242 82.4482C56.2615 83.1204 56.3933 83.8584 56.3933 84.6887C56.3933 85.6112 56.2747 86.4283 56.0242 87.1268C55.787 87.8253 55.4575 88.3788 55.0358 88.7874C54.6273 89.1959 54.166 89.499 53.652 89.6967H53.6784ZM50.3836 87.3772C50.8185 87.9439 51.3852 88.2338 52.0705 88.2338C52.7558 88.2338 53.3225 87.9571 53.7575 87.4036C54.1924 86.85 54.4164 85.9539 54.4164 84.715C54.4164 83.6343 54.1924 82.8041 53.7443 82.2242C53.2962 81.6575 52.7427 81.3676 52.0837 81.3676C51.4248 81.3676 50.8581 81.6575 50.41 82.2242C49.9619 82.7909 49.7378 83.6212 49.7378 84.715C49.7378 85.9275 49.9619 86.8237 50.3968 87.3904L50.3836 87.3772Z" fill="#FF4242"/>
</svg>
